<?xml version="1.0" encoding="UTF-8"?>
<svg id="Layer_2" data-name="Layer 2" xmlns="http://www.w3.org/2000/svg" xmlns:xlink="http://www.w3.org/1999/xlink" viewBox="0 0 989.51 140.98">
  <defs>
    <style>
      .cls-1 {
        fill: url(#_Безымянный_градиент_2);
      }

      .cls-2 {
        fill: #fff;
      }
    </style>
    <linearGradient id="_Безымянный_градиент_2" data-name="Безымянный градиент 2" x1="69.85" y1="139.75" x2="69.85" y2="76.82" gradientUnits="userSpaceOnUse">
      <stop offset="0" stop-color="#d87702"/>
      <stop offset="0" stop-color="#d87702"/>
      <stop offset=".11" stop-color="#e08701"/>
      <stop offset=".31" stop-color="#eea000"/>
      <stop offset=".51" stop-color="#f7b200"/>
      <stop offset=".74" stop-color="#fdbc00"/>
      <stop offset="1" stop-color="#ffc000"/>
      <stop offset="1" stop-color="#ffc000"/>
    </linearGradient>
  </defs>
  <g id="_Слой_1" data-name="Слой 1">
    <g>
      <path class="cls-1" d="M88.22,76.82c-1.46,2.96-4.51,4.98-8.04,4.98s-6.56-2.02-8.02-4.98h-7.49v21.15c0,30.94-7.49,37.42-20.38,41.04,3.02.49,6.19.74,9.56.74,12.79,0,23-3.56,30.4-10.57,7.41-7.01,11.17-17.51,11.17-31.21v-21.15h-7.2ZM74.44,91.73h-6.56v-2.9h6.56v2.9ZM83.45,91.73h-6.54v-2.9h6.54v2.9ZM92.48,91.73h-6.54v-2.9h6.54v2.9Z"/>
      <g>
        <path class="cls-2" d="M43.03,65.94v32.03c0,8.76,3.54,13.02,10.82,13.02,2.69,0,4.85-.58,6.52-1.75-1.62,20.02-8.04,23.47-17.13,26.02h0c-4.87,1.38-10.16.8-14.44-1.91-1.92-1.22-3.71-2.6-5.35-4.16-7.4-7.01-11.15-17.51-11.15-31.21v-32.03H0v-27.77h12.3V10.67h30.73v27.5h52.39v27.77h-52.39Z"/>
        <path class="cls-2" d="M200.48,113.56c-5.62,0-10.12-2.18-13.47-6.56-3.35-4.36-5.02-10.61-5.02-18.76s1.67-14.38,5.02-18.76c3.35-4.36,7.84-6.54,13.47-6.54,7.9,0,13.21,3.83,15.98,11.48h32.67c-2.65-11.97-8.17-21.25-16.6-27.83-8.45-6.58-18.95-9.87-31.51-9.87-9.83,0-18.53,2.08-26.14,6.29-7.59,4.18-13.51,10.16-17.75,17.94-4.26,7.78-6.38,16.87-6.38,27.28s2.12,19.5,6.38,27.28c4.24,7.78,10.16,13.78,17.75,17.96,7.61,4.2,16.31,6.27,26.14,6.27,12.44,0,22.91-3.33,31.41-10.04,8.5-6.71,14.05-15.9,16.7-27.65h-32.67c-2.76,7.67-8.08,11.5-15.98,11.5Z"/>
        <polygon class="cls-2" points="323.61 75.22 354.55 138.33 324.19 138.33 303.22 95.55 296.72 102.04 292.57 106.18 292.57 138.33 261.86 138.33 261.86 0 292.57 0 292.57 68.39 322.89 38.17 360.78 38.17 323.61 75.22"/>
        <path class="cls-2" d="M456.02,86.63c0-10.06-2.12-18.84-6.38-26.37-4.24-7.57-10.14-13.35-17.67-17.42-7.53-4.09-16.15-6.11-25.86-6.11s-18.72,2.08-26.39,6.29c-7.65,4.18-13.6,10.16-17.85,17.94-4.26,7.78-6.36,16.87-6.36,27.28s2.14,19.5,6.46,27.28c4.3,7.78,10.28,13.78,17.92,17.96,7.67,4.2,16.41,6.27,26.21,6.27,8.15,0,15.51-1.5,22.09-4.48,6.58-3,12.07-7.12,16.42-12.4,4.38-5.25,7.38-11.17,9.07-17.75h-32.67c-3,6.44-8.33,9.67-15.98,9.67-5.14,0-9.5-1.63-13.02-4.92-3.52-3.29-5.53-8.06-5.99-14.26h69.45c.37-3.13.54-6.11.54-8.99ZM386.2,78.55c.84-5.49,3.02-9.75,6.56-12.75,3.5-3,7.86-4.5,13-4.5s9.89,1.56,13.45,4.69c3.6,3.09,5.41,7.3,5.41,12.55h-38.42Z"/>
        <g>
          <path class="cls-2" d="M107.5,38.15v100.16h30.69V38.15h-30.69Z"/>
          <rect class="cls-2" x="107.5" width="30.69" height="27.58"/>
        </g>
        <g>
          <path class="cls-2" d="M707.65,38.17v57.99c0,8.91-2.16,15.65-6.48,20.16-4.32,4.53-10.16,6.81-17.44,6.81s-12.94-2.32-17.34-6.91c-4.38-4.59-6.6-11.27-6.6-20.06v-57.99h-19.25v57.99c0,8.8-2.18,15.47-6.48,20.06-4.32,4.59-10.08,6.91-17.24,6.91s-13.12-2.28-17.44-6.81c-4.34-4.51-6.48-11.25-6.48-20.16v-57.99h-19.27v57.99c0,14.73,3.83,25.88,11.46,33.45,7.63,7.57,17.61,11.37,29.91,11.37,16.21,0,27.91-6.5,35.07-19.48h.39c7.18,12.98,18.86,19.48,35.09,19.48,12.3,0,22.24-3.79,29.89-11.37,7.63-7.57,11.44-18.72,11.44-33.45v-57.99h-19.25Z"/>
          <path class="cls-2" d="M830.5,48.41c-8.7-8.56-19.75-12.86-33.12-12.86-15.16,0-26.15,6.07-33.06,18.23h-.41V0h-19.27v138.31h19.27v-52.08c0-10.55,2.74-18.66,8.21-24.35,5.47-5.68,12.81-8.5,22.01-8.5s16.68,2.8,22.07,8.43c5.41,5.58,8.12,13.74,8.12,24.42v52.08h19.27v-52.08c0-16.62-4.36-29.23-13.08-37.83Z"/>
          <path class="cls-2" d="M923.43,121.09v-.66l64.05-66.69v-15.57h-86.89v17.24h61.03v.41l-64.06,66.69v15.8h91.97v-17.22h-66.09Z"/>
          <g>
            <path class="cls-2" d="M861.46,38.17v100.16h19.25V38.17h-19.25Z"/>
            <rect class="cls-2" x="861.47" width="19.23" height="21.18"/>
          </g>
        </g>
        <path class="cls-2" d="M558.3,76.82v21.16c0,13.7-3.76,24.21-11.17,31.22-7.4,7.01-17.61,10.57-30.4,10.57s-23.01-3.56-30.4-10.57c-7.4-7.01-11.15-17.52-11.15-31.22v-32.04h-12.29v-27.77h12.29V10.67h30.73v27.5h52.39v27.77h-52.39v32.04c0,8.76,3.54,13.02,10.82,13.02s10.82-4.26,10.82-13.02v-21.16h30.75Z"/>
      </g>
    </g>
  </g>
</svg>