<svg width="2048" height="1242" viewBox="0 0 2048 1242" fill="none" xmlns="http://www.w3.org/2000/svg">
<path d="M1942.19 1236.4C1944.93 1235.85 1946.77 1233.41 1947.34 1232.26H1810.86C1811.44 1233.41 1813.27 1235.85 1816.01 1236.4C1816.3 1238.01 1817.56 1241.24 1820.3 1241.24H1937.9C1940.64 1241.24 1941.9 1238.01 1942.19 1236.4Z" fill="#9E978D"/>
<path d="M1942.06 1236.96C1941.62 1238.66 1940.35 1241.24 1937.89 1241.24H1820.3C1817.74 1241.24 1816.47 1238.43 1816.08 1236.75H1942.06V1236.96Z" fill="url(#paint0_linear_2106_4035)"/>
<path d="M231.032 1236.4C233.778 1235.85 235.61 1233.41 236.182 1232.26H99.707C100.279 1233.41 102.11 1235.85 104.857 1236.4C105.143 1238.01 106.402 1241.24 109.149 1241.24H226.74C229.487 1241.24 230.746 1238.01 231.032 1236.4Z" fill="#9E978D"/>
<path d="M230.906 1236.96C230.462 1238.66 229.197 1241.24 226.74 1241.24H109.148C106.587 1241.24 105.321 1238.43 104.93 1236.75H230.906V1236.96Z" fill="url(#paint1_linear_2106_4035)"/>
<mask id="mask0_2106_4035" style="mask-type:alpha" maskUnits="userSpaceOnUse" x="0" y="1181" width="2048" height="52">
<path d="M2048 1187.34V1181.96H0V1187.34C0 1203.06 0 1210.92 4.40563 1216.93C8.28094 1222.21 14.4645 1226.51 22.0703 1229.2C30.7168 1232.26 42.0358 1232.26 64.6737 1232.26H1983.33C2005.96 1232.26 2017.28 1232.26 2025.93 1229.2C2033.54 1226.51 2039.72 1222.21 2043.59 1216.93C2048 1210.92 2048 1203.06 2048 1187.34Z" fill="white"/>
</mask>
<g mask="url(#mask0_2106_4035)">
<path d="M2048 1187.34V1181.96H0V1187.34C0 1203.06 0 1210.92 4.40563 1216.93C8.28094 1222.21 14.4645 1226.51 22.0703 1229.2C30.7168 1232.26 42.0358 1232.26 64.6737 1232.26H1983.33C2005.96 1232.26 2017.28 1232.26 2025.93 1229.2C2033.54 1226.51 2039.72 1222.21 2043.59 1216.93C2048 1210.92 2048 1203.06 2048 1187.34Z" fill="url(#paint2_linear_2106_4035)"/>
<rect x="1818.05" y="1181.96" width="229.951" height="50.3018" fill="url(#paint3_linear_2106_4035)"/>
<rect width="231.747" height="50.3018" transform="matrix(-1 0 0 1 231.746 1181.96)" fill="url(#paint4_linear_2106_4035)"/>
<g filter="url(#filter0_f_2106_4035)">
<path d="M4.49219 1172.97H30.5413V1199.47C30.5413 1206.66 24.71 1212.5 17.5167 1212.5C10.3235 1212.5 4.49219 1206.66 4.49219 1199.47V1172.97Z" fill="url(#paint5_linear_2106_4035)"/>
</g>
<g filter="url(#filter1_f_2106_4035)">
<path d="M2043.51 1172.97H2017.46V1199.47C2017.46 1206.66 2023.29 1212.5 2030.48 1212.5C2037.68 1212.5 2043.51 1206.66 2043.51 1199.47V1172.97Z" fill="url(#paint6_linear_2106_4035)"/>
</g>
</g>
<path d="M839.859 1181.96H1208.14C1208.14 1195.85 1196.88 1207.11 1182.99 1207.11H865.01C851.12 1207.11 839.859 1195.85 839.859 1181.96Z" fill="url(#paint7_linear_2106_4035)"/>
<path d="M1881.82 61.8424C1881.82 28.1085 1854.47 0.761719 1820.74 0.761719H229.049C195.316 0.761719 167.969 28.1086 167.969 61.8425L167.969 1146.02C167.969 1156.8 169.765 1181.95 181.442 1181.95H1868.35C1880.02 1181.95 1881.82 1156.8 1881.82 1146.02V61.8424Z" fill="#C7B7A0"/>
<mask id="mask1_2106_4035" style="mask-type:alpha" maskUnits="userSpaceOnUse" x="167" y="1126" width="1715" height="56">
<path d="M167.969 1181.95V1146.03C167.969 1135.11 176.816 1126.26 187.73 1126.26H1862.06C1872.97 1126.26 1881.82 1135.11 1881.82 1146.03V1181.95H1868.35H181.442H167.969Z" fill="black"/>
</mask>
<g mask="url(#mask1_2106_4035)">
<g filter="url(#filter2_d_2106_4035)">
<path d="M1860.26 1181.96C1877.02 1177.17 1875.7 1150.41 1875.51 1136.31C1875.48 1133.76 1873.38 1131.59 1870.89 1132.14C1847.89 1137.25 1856.06 1181.11 1841.4 1181.96H1860.26Z" fill="#141311"/>
</g>
<g filter="url(#filter3_d_2106_4035)">
<path d="M189.607 1181.96C172.853 1177.17 174.169 1150.41 174.358 1136.31C174.392 1133.76 176.494 1131.59 178.982 1132.14C201.981 1137.25 193.809 1181.11 208.47 1181.96H189.607Z" fill="#141311"/>
</g>
</g>
<path d="M1820.74 11.541H229.052C201.271 11.541 178.75 34.0619 178.75 61.8428V1147.82C178.75 1163.7 191.619 1176.57 207.494 1176.57H1842.3C1858.18 1176.57 1871.04 1163.7 1871.04 1147.82V61.8428C1871.04 34.0619 1848.52 11.541 1820.74 11.541Z" fill="black"/>
<g filter="url(#filter4_ii_2106_4035)">
<path d="M1842.3 1181.96C1858.15 1181.96 1871 1167.59 1871.04 1149.85V1131.65H178.75V1149.76C178.75 1167.54 191.619 1181.96 207.494 1181.96H1842.3Z" fill="url(#paint8_linear_2106_4035)"/>
</g>
<g filter="url(#filter5_ii_2106_4035)">
<path fill-rule="evenodd" clip-rule="evenodd" d="M1820.74 6.15137H229.051C198.293 6.15137 173.359 31.0851 173.359 61.8426V1147.82C173.359 1166.67 188.641 1181.95 207.493 1181.95H363.787V1180.16C363.787 1178.17 362.179 1176.57 360.194 1176.57H207.493C191.618 1176.57 178.749 1163.7 178.749 1147.82V61.8426C178.749 34.0617 201.27 11.5408 229.051 11.5408H1820.74C1848.52 11.5408 1871.04 34.0617 1871.04 61.8426V1147.82C1871.04 1163.7 1858.17 1176.57 1842.3 1176.57H1689.6C1687.61 1176.57 1686.01 1178.17 1686.01 1180.16V1181.95H1842.3C1861.15 1181.95 1876.43 1166.67 1876.43 1147.82V61.8426C1876.43 31.0851 1851.5 6.15137 1820.74 6.15137Z" fill="#232122"/>
</g>
<path d="M207.492 57.3509C207.492 45.4448 217.144 35.793 229.05 35.793H1820.74C1832.65 35.793 1842.3 45.4448 1842.3 57.3509V1098.42H207.492V57.3509Z" fill="white"/>
<path d="M907.223 35.793H920.396C923.373 35.793 925.786 38.2059 925.786 41.1824V60.9438C925.786 66.8969 930.612 71.7228 936.565 71.7228H1114.12C1120.07 71.7228 1124.9 66.8969 1124.9 60.9438V41.1824C1124.9 38.2059 1127.31 35.793 1130.29 35.793H1143.46H907.223Z" fill="black"/>
<g filter="url(#filter6_f_2106_4035)">
<circle cx="1024.89" cy="42.9791" r="10.7789" fill="#0F1316"/>
</g>
<g filter="url(#filter7_f_2106_4035)">
<circle cx="1024.89" cy="42.9787" r="8.08421" fill="#080905"/>
</g>
<g filter="url(#filter8_f_2106_4035)">
<ellipse cx="1024.89" cy="44.776" rx="3.59298" ry="1.79649" fill="#05111D"/>
</g>
<g filter="url(#filter9_f_2106_4035)">
<ellipse cx="1024.89" cy="41.1822" rx="3.59298" ry="1.79649" fill="#05111D"/>
</g>
<g filter="url(#filter10_f_2106_4035)">
<ellipse cx="1024.89" cy="45.2243" rx="2.69474" ry="1.34737" fill="#0F3455"/>
</g>
<g filter="url(#filter11_f_2106_4035)">
<ellipse cx="1024.89" cy="41.1822" rx="2.69474" ry="1.79649" fill="#0F3857"/>
</g>
<defs>
<filter id="filter0_f_2106_4035" x="-0.897286" y="1167.58" width="36.8297" height="50.3014" filterUnits="userSpaceOnUse" color-interpolation-filters="sRGB">
<feFlood flood-opacity="0" result="BackgroundImageFix"/>
<feBlend mode="normal" in="SourceGraphic" in2="BackgroundImageFix" result="shape"/>
<feGaussianBlur stdDeviation="2.69474" result="effect1_foregroundBlur_2106_4035"/>
</filter>
<filter id="filter1_f_2106_4035" x="2012.07" y="1167.58" width="36.8297" height="50.3014" filterUnits="userSpaceOnUse" color-interpolation-filters="sRGB">
<feFlood flood-opacity="0" result="BackgroundImageFix"/>
<feBlend mode="normal" in="SourceGraphic" in2="BackgroundImageFix" result="shape"/>
<feGaussianBlur stdDeviation="2.69474" result="effect1_foregroundBlur_2106_4035"/>
</filter>
<filter id="filter2_d_2106_4035" x="1840.5" y="1130.26" width="37.8039" height="53.4963" filterUnits="userSpaceOnUse" color-interpolation-filters="sRGB">
<feFlood flood-opacity="0" result="BackgroundImageFix"/>
<feColorMatrix in="SourceAlpha" type="matrix" values="0 0 0 0 0 0 0 0 0 0 0 0 0 0 0 0 0 0 127 0" result="hardAlpha"/>
<feOffset dx="0.898246"/>
<feGaussianBlur stdDeviation="0.898246"/>
<feComposite in2="hardAlpha" operator="out"/>
<feColorMatrix type="matrix" values="0 0 0 0 0.0784314 0 0 0 0 0.0745098 0 0 0 0 0.0666667 0 0 0 1 0"/>
<feBlend mode="normal" in2="BackgroundImageFix" result="effect1_dropShadow_2106_4035"/>
<feBlend mode="normal" in="SourceGraphic" in2="effect1_dropShadow_2106_4035" result="shape"/>
</filter>
<filter id="filter3_d_2106_4035" x="171.563" y="1130.26" width="37.8039" height="53.4963" filterUnits="userSpaceOnUse" color-interpolation-filters="sRGB">
<feFlood flood-opacity="0" result="BackgroundImageFix"/>
<feColorMatrix in="SourceAlpha" type="matrix" values="0 0 0 0 0 0 0 0 0 0 0 0 0 0 0 0 0 0 127 0" result="hardAlpha"/>
<feOffset dx="-0.898246"/>
<feGaussianBlur stdDeviation="0.898246"/>
<feComposite in2="hardAlpha" operator="out"/>
<feColorMatrix type="matrix" values="0 0 0 0 0.0784314 0 0 0 0 0.0745098 0 0 0 0 0.0666667 0 0 0 1 0"/>
<feBlend mode="normal" in2="BackgroundImageFix" result="effect1_dropShadow_2106_4035"/>
<feBlend mode="normal" in="SourceGraphic" in2="effect1_dropShadow_2106_4035" result="shape"/>
</filter>
<filter id="filter4_ii_2106_4035" x="177.852" y="1130.76" width="1694.09" height="51.2" filterUnits="userSpaceOnUse" color-interpolation-filters="sRGB">
<feFlood flood-opacity="0" result="BackgroundImageFix"/>
<feBlend mode="normal" in="SourceGraphic" in2="BackgroundImageFix" result="shape"/>
<feColorMatrix in="SourceAlpha" type="matrix" values="0 0 0 0 0 0 0 0 0 0 0 0 0 0 0 0 0 0 127 0" result="hardAlpha"/>
<feOffset dx="-0.898246" dy="-0.898246"/>
<feGaussianBlur stdDeviation="0.898246"/>
<feComposite in2="hardAlpha" operator="arithmetic" k2="-1" k3="1"/>
<feColorMatrix type="matrix" values="0 0 0 0 0 0 0 0 0 0 0 0 0 0 0 0 0 0 0.5 0"/>
<feBlend mode="normal" in2="shape" result="effect1_innerShadow_2106_4035"/>
<feColorMatrix in="SourceAlpha" type="matrix" values="0 0 0 0 0 0 0 0 0 0 0 0 0 0 0 0 0 0 127 0" result="hardAlpha"/>
<feOffset dx="0.898246" dy="-0.898246"/>
<feGaussianBlur stdDeviation="0.898246"/>
<feComposite in2="hardAlpha" operator="arithmetic" k2="-1" k3="1"/>
<feColorMatrix type="matrix" values="0 0 0 0 0 0 0 0 0 0 0 0 0 0 0 0 0 0 0.5 0"/>
<feBlend mode="normal" in2="effect1_innerShadow_2106_4035" result="effect2_innerShadow_2106_4035"/>
</filter>
<filter id="filter5_ii_2106_4035" x="173.359" y="6.15137" width="1703.07" height="1176.7" filterUnits="userSpaceOnUse" color-interpolation-filters="sRGB">
<feFlood flood-opacity="0" result="BackgroundImageFix"/>
<feBlend mode="normal" in="SourceGraphic" in2="BackgroundImageFix" result="shape"/>
<feColorMatrix in="SourceAlpha" type="matrix" values="0 0 0 0 0 0 0 0 0 0 0 0 0 0 0 0 0 0 127 0" result="hardAlpha"/>
<feOffset dy="0.898246"/>
<feGaussianBlur stdDeviation="1.34737"/>
<feComposite in2="hardAlpha" operator="arithmetic" k2="-1" k3="1"/>
<feColorMatrix type="matrix" values="0 0 0 0 1 0 0 0 0 1 0 0 0 0 1 0 0 0 0.1 0"/>
<feBlend mode="normal" in2="shape" result="effect1_innerShadow_2106_4035"/>
<feColorMatrix in="SourceAlpha" type="matrix" values="0 0 0 0 0 0 0 0 0 0 0 0 0 0 0 0 0 0 127 0" result="hardAlpha"/>
<feOffset dy="0.898246"/>
<feGaussianBlur stdDeviation="0.898246"/>
<feComposite in2="hardAlpha" operator="arithmetic" k2="-1" k3="1"/>
<feColorMatrix type="matrix" values="0 0 0 0 0 0 0 0 0 0 0 0 0 0 0 0 0 0 0.5 0"/>
<feBlend mode="normal" in2="effect1_innerShadow_2106_4035" result="effect2_innerShadow_2106_4035"/>
</filter>
<filter id="filter6_f_2106_4035" x="1012.32" y="30.4037" width="25.1516" height="25.1506" filterUnits="userSpaceOnUse" color-interpolation-filters="sRGB">
<feFlood flood-opacity="0" result="BackgroundImageFix"/>
<feBlend mode="normal" in="SourceGraphic" in2="BackgroundImageFix" result="shape"/>
<feGaussianBlur stdDeviation="0.898246" result="effect1_foregroundBlur_2106_4035"/>
</filter>
<filter id="filter7_f_2106_4035" x="1015.01" y="33.098" width="19.761" height="19.761" filterUnits="userSpaceOnUse" color-interpolation-filters="sRGB">
<feFlood flood-opacity="0" result="BackgroundImageFix"/>
<feBlend mode="normal" in="SourceGraphic" in2="BackgroundImageFix" result="shape"/>
<feGaussianBlur stdDeviation="0.898246" result="effect1_foregroundBlur_2106_4035"/>
</filter>
<filter id="filter8_f_2106_4035" x="1019.5" y="41.183" width="10.7805" height="7.18576" filterUnits="userSpaceOnUse" color-interpolation-filters="sRGB">
<feFlood flood-opacity="0" result="BackgroundImageFix"/>
<feBlend mode="normal" in="SourceGraphic" in2="BackgroundImageFix" result="shape"/>
<feGaussianBlur stdDeviation="0.898246" result="effect1_foregroundBlur_2106_4035"/>
</filter>
<filter id="filter9_f_2106_4035" x="1019.5" y="37.5893" width="10.7805" height="7.18576" filterUnits="userSpaceOnUse" color-interpolation-filters="sRGB">
<feFlood flood-opacity="0" result="BackgroundImageFix"/>
<feBlend mode="normal" in="SourceGraphic" in2="BackgroundImageFix" result="shape"/>
<feGaussianBlur stdDeviation="0.898246" result="effect1_foregroundBlur_2106_4035"/>
</filter>
<filter id="filter10_f_2106_4035" x="1020.4" y="42.0805" width="8.98361" height="6.28732" filterUnits="userSpaceOnUse" color-interpolation-filters="sRGB">
<feFlood flood-opacity="0" result="BackgroundImageFix"/>
<feBlend mode="normal" in="SourceGraphic" in2="BackgroundImageFix" result="shape"/>
<feGaussianBlur stdDeviation="0.898246" result="effect1_foregroundBlur_2106_4035"/>
</filter>
<filter id="filter11_f_2106_4035" x="1020.4" y="37.5893" width="8.98361" height="7.18576" filterUnits="userSpaceOnUse" color-interpolation-filters="sRGB">
<feFlood flood-opacity="0" result="BackgroundImageFix"/>
<feBlend mode="normal" in="SourceGraphic" in2="BackgroundImageFix" result="shape"/>
<feGaussianBlur stdDeviation="0.898246" result="effect1_foregroundBlur_2106_4035"/>
</filter>
<linearGradient id="paint0_linear_2106_4035" x1="1816.08" y1="1238.99" x2="1942.06" y2="1238.99" gradientUnits="userSpaceOnUse">
<stop stop-color="#575757"/>
<stop offset="0.0827846" stop-color="#2D2D2D"/>
<stop offset="0.490477" stop-color="#4E4E4E"/>
<stop offset="0.824814" stop-color="#2A2A2A"/>
<stop offset="1" stop-color="#5C5C5C"/>
</linearGradient>
<linearGradient id="paint1_linear_2106_4035" x1="104.93" y1="1238.99" x2="230.906" y2="1238.99" gradientUnits="userSpaceOnUse">
<stop stop-color="#575757"/>
<stop offset="0.0827846" stop-color="#2D2D2D"/>
<stop offset="0.490477" stop-color="#4E4E4E"/>
<stop offset="0.824814" stop-color="#2A2A2A"/>
<stop offset="1" stop-color="#5C5C5C"/>
</linearGradient>
<linearGradient id="paint2_linear_2106_4035" x1="1024" y1="1181.96" x2="1024" y2="1232.26" gradientUnits="userSpaceOnUse">
<stop stop-color="#EEE7E1"/>
<stop offset="0.192522" stop-color="#E5DED4"/>
<stop offset="0.376094" stop-color="#D1CAC0"/>
<stop offset="0.598958" stop-color="#AAA399"/>
<stop offset="0.713542" stop-color="#938C82"/>
<stop offset="0.852125" stop-color="#938C82"/>
<stop offset="0.931356" stop-color="#CEC8BC"/>
</linearGradient>
<linearGradient id="paint3_linear_2106_4035" x1="2048" y1="1207.87" x2="1818.05" y2="1207.87" gradientUnits="userSpaceOnUse">
<stop stop-color="#ABA49A" stop-opacity="0"/>
<stop offset="0.259918" stop-color="#ABA49A"/>
<stop offset="1" stop-color="#ABA49A" stop-opacity="0"/>
</linearGradient>
<linearGradient id="paint4_linear_2106_4035" x1="231.747" y1="25.913" x2="7.93222e-08" y2="25.913" gradientUnits="userSpaceOnUse">
<stop stop-color="#ABA49A" stop-opacity="0"/>
<stop offset="0.259918" stop-color="#ABA49A"/>
<stop offset="1" stop-color="#ABA49A" stop-opacity="0"/>
</linearGradient>
<linearGradient id="paint5_linear_2106_4035" x1="4.49219" y1="1186.52" x2="30.5413" y2="1186.52" gradientUnits="userSpaceOnUse">
<stop offset="0.0875682" stop-color="white" stop-opacity="0.17"/>
<stop offset="0.272185" stop-color="white" stop-opacity="0.65"/>
<stop offset="0.489769" stop-color="white" stop-opacity="0.65"/>
<stop offset="0.677083" stop-color="white" stop-opacity="0.19"/>
<stop offset="1" stop-color="white" stop-opacity="0"/>
</linearGradient>
<linearGradient id="paint6_linear_2106_4035" x1="2043.51" y1="1186.52" x2="2017.46" y2="1186.52" gradientUnits="userSpaceOnUse">
<stop offset="0.0875682" stop-color="white" stop-opacity="0.17"/>
<stop offset="0.272185" stop-color="white" stop-opacity="0.65"/>
<stop offset="0.489769" stop-color="white" stop-opacity="0.65"/>
<stop offset="0.677083" stop-color="white" stop-opacity="0.19"/>
<stop offset="1" stop-color="white" stop-opacity="0"/>
</linearGradient>
<linearGradient id="paint7_linear_2106_4035" x1="840.73" y1="1194.15" x2="1208.14" y2="1194.15" gradientUnits="userSpaceOnUse">
<stop stop-color="#797268"/>
<stop offset="0.015659" stop-color="#8E877D"/>
<stop offset="0.035819" stop-color="#C7C0B6"/>
<stop offset="0.0504351" stop-color="#EFE8DE"/>
<stop offset="0.479167" stop-color="#F7F0E8"/>
<stop offset="0.941214" stop-color="#EFE8DE"/>
<stop offset="0.970403" stop-color="#C7C0B6"/>
<stop offset="0.980129" stop-color="#8E877D"/>
<stop offset="1" stop-color="#797268"/>
</linearGradient>
<linearGradient id="paint8_linear_2106_4035" x1="1024.9" y1="1131.65" x2="1024.9" y2="1181.96" gradientUnits="userSpaceOnUse">
<stop stop-color="#252525"/>
<stop offset="1" stop-color="#101010"/>
</linearGradient>
</defs>
</svg>
